<svg xmlns="http://www.w3.org/2000/svg" viewBox="0 0 24 24">
  <path fill="currentColor" d="M19.14 12.94c.04-.3.06-.61.06-.94 0-.32-.02-.64-.07-.94l2.03-1.58a.49.49 0 0 0 .12-.61l-1.92-3.32a.49.49 0 0 0-.59-.22l-2.39.96a7.1 7.1 0 0 0-1.62-.94l-.36-2.54A.484.484 0 0 0 14 2h-3.84c-.24 0-.43.17-.47.41l-.36 2.54a7.51 7.51 0 0 0-1.62.94l-2.39-.96c-.22-.08-.47 0-.59.22L2.74 8.87a.47.47 0 0 0 .12.61l2.03 1.58c-.05.3-.07.63-.07.94s.02.64.07.94l-2.03 1.58a.47.47 0 0 0-.12.61l1.92 3.32c.12.22.37.29.59.22l2.39-.96c.5.38 1.04.7 1.62.94l.36 2.54c.05.24.24.41.47.41H14c.24 0 .44-.17.47-.41l.36-2.54a7.17 7.17 0 0 0 1.62-.94l2.39.96c.22.08.47 0 .59-.22l1.92-3.32a.47.47 0 0 0-.12-.61l-2.09-1.58ZM12 15.6c-1.98 0-3.6-1.62-3.6-3.6s1.62-3.6 3.6-3.6 3.6 1.62 3.6 3.6-1.62 3.6-3.6 3.6Z"/>
</svg>
